<svg width="822.4636718749999px" height="218.007470703125px" xmlns="http://www.w3.org/2000/svg" viewBox="-161.23183593749997 -34.0037353515625 822.4636718749999 218.007470703125" style="background: rgba(0, 0, 0, 0);" preserveAspectRatio="xMidYMid"><defs><linearGradient id="editing-gradient-gradient" x1="0" x2="1" y1="0.5" y2="0.5" gradientUnits="objectBoundingBox"><stop offset="0" stop-color="#fed136"></stop><stop offset="1" stop-color="#fed136"></stop></linearGradient></defs><g><g transform="translate(-41.95781860500574, 136.25)"><path d="M23.90-70.50L23.90-70.50L23.90-70.50Q24.50-71.20 25.10-71.20L25.10-71.20L25.10-71.20Q25.70-71.20 26.25-70.70L26.25-70.70L26.25-70.70Q26.80-70.20 26.80-69.45L26.80-69.45L26.80-69.45Q26.80-68.70 25.80-67.40L25.80-67.40L25.80-67.40Q20.90-60.20 16.30-47.90L16.30-47.90L16.30-47.90Q11.70-35.60 11.70-26.65L11.70-26.65L11.70-26.65Q11.70-17.70 14.80-13.60L14.80-13.60L14.80-13.60Q17.90-9.50 21.85-9.50L21.85-9.50L21.85-9.50Q25.80-9.50 30-13.60L30-13.60L30-13.60Q34.20-17.70 38-24.20L38-24.20L38-24.20Q44.70-36 48.10-44L48.10-44L48.10-44Q49.30-46.60 50-46.60L50-46.60L50-46.60Q50.70-46.60 51.25-46.10L51.25-46.10L51.25-46.10Q51.80-45.60 51.80-45.20L51.80-45.20L51.80-45.20Q51.80-44.80 51.25-41.20L51.25-41.20L51.25-41.20Q50.70-37.60 50.70-32.30L50.70-32.30L50.70-32.30Q50.70-8.60 64.70-8.60L64.70-8.60L64.70-8.60Q69.20-8.60 72.90-11.25L72.90-11.25L72.90-11.25Q76.60-13.90 78.70-17.80L78.70-17.80L78.70-17.80Q83.10-26.10 83.10-32.25L83.10-32.25L83.10-32.25Q83.10-38.40 80.45-45.30L80.45-45.30L80.45-45.30Q77.80-52.20 72.55-57.75L72.55-57.75L72.55-57.75Q67.30-63.30 61.10-63.50L61.10-63.50L61.10-63.50Q59.30-63.60 59.30-64.90L59.30-64.90L59.30-64.90Q59.30-67 62.90-69.85L62.90-69.85L62.90-69.85Q66.50-72.70 70.90-72.70L70.90-72.70L70.90-72.70Q78.20-72.70 83.75-65.25L83.75-65.25L83.75-65.25Q89.30-57.80 89.30-43.70L89.30-43.70L89.30-43.70Q89.30-34.10 86-24.85L86-24.85L86-24.85Q82.70-15.60 77.65-9.05L77.65-9.05L77.65-9.05Q72.60-2.50 66.55 1.55L66.55 1.55L66.55 1.55Q60.50 5.60 55.20 5.60L55.20 5.60L55.20 5.60Q51.70 5.60 49.20 3.75L49.20 3.75L49.20 3.75Q46.70 1.90 45.40-1L45.40-1L45.40-1Q43.20-6.40 43.20-12.40L43.20-12.40L43.20-12.40Q43.20-17.70 44-21.70L44-21.70L44-21.70Q44.80-25.70 45.20-27.65L45.20-27.65L45.20-27.65Q45.60-29.60 45.60-29.95L45.60-29.95L45.60-29.95Q45.60-30.30 45.50-30.30L45.50-30.30L45.50-30.30Q44.90-30.30 43.60-27.55L43.60-27.55L43.60-27.55Q42.30-24.80 41.30-22.90L41.30-22.90L41.30-22.90Q35-11 25.70-1L25.70-1L25.70-1Q19.10 6.10 12.20 6.10L12.20 6.10L12.20 6.10Q8.70 6.10 4.80 2.80L4.80 2.80L4.80 2.80Q2.70 1 1.40-2.65L1.40-2.65L1.40-2.65Q0.10-6.30 0.10-11.90L0.10-11.90L0.10-11.90Q0.10-17.50 2.95-27L2.95-27L2.95-27Q5.80-36.50 11-47.40L11-47.40L11-47.40Q18.30-62.90 23.90-70.50ZM111.70-12.80L111.70-12.80L111.30-10L111.30-10Q111.30-8.20 112.85-6.25L112.85-6.25L112.85-6.25Q114.40-4.30 116.50-4.30L116.50-4.30L116.50-4.30Q118.10-4.30 119.10-5L119.10-5L119.10-5Q121.30-6.50 121.85-7.05L121.85-7.05L121.85-7.05Q122.40-7.60 123.65-7.60L123.65-7.60L123.65-7.60Q124.90-7.60 124.90-6.70L124.90-6.70L124.90-6.70Q124.90-5.70 120.20-0.40L120.20-0.40L120.20-0.40Q118.70 1.30 115.80 3.20L115.80 3.20L115.80 3.20Q112.90 5.10 110.65 5.10L110.65 5.10L110.65 5.10Q108.40 5.10 107.25 4.35L107.25 4.35L107.25 4.35Q106.10 3.60 105.60 2L105.60 2L105.60 2Q105-0.20 105-3.40L105-3.40L105-3.40Q105-3.80 104.50-3.80L104.50-3.80L104.50-3.80Q104-3.80 102.20-1.80L102.20-1.80L102.20-1.80Q96.60 4 93.15 4L93.15 4L93.15 4Q89.70 4 87.85 2.20L87.85 2.20L87.85 2.20Q86 0.40 86-2.40L86-2.40L86-2.40Q86-7.30 88.60-11.75L88.60-11.75L88.60-11.75Q91.20-16.20 94.80-18.90L94.80-18.90L94.80-18.90Q102.80-24.80 107.20-24.80L107.20-24.80L107.20-24.80Q113.80-24.60 113.80-20.10L113.80-20.10L113.80-20.10Q113.80-18.50 112.40-16.95L112.40-16.95L112.40-16.95Q111-15.40 109.80-15.40L109.80-15.40L109.80-15.40Q108.60-15.40 106.50-17.50L106.50-17.50L106.50-17.50Q104.40-19.60 101.90-19.60L101.90-19.60L101.90-19.60Q99.40-19.60 97.80-17.55L97.80-17.55L97.80-17.55Q96.20-15.50 96.20-12.30L96.20-12.30L96.20-12.30Q96.20-7.10 101.70-7.10L101.70-7.10L101.70-7.10Q103.90-7.10 105.35-8.20L105.35-8.20L105.35-8.20Q106.80-9.30 107.40-10.60L107.40-10.60L107.40-10.60Q109.10-14 110.50-14L110.50-14L110.50-14Q111.70-14 111.70-12.80ZM144.70 30L144.70 30L144.70 30Q147.10 30 147.10 10.20L147.10 10.20L147.10 10.20Q147.10 6 147 4L147 4L147 4Q140.70 12.50 140.70 19.30L140.70 19.30L140.70 19.30Q140.70 23.20 141.65 26.60L141.65 26.60L141.65 26.60Q142.60 30 144.70 30ZM128.90-21.90L128.90-21.90L128.50-17.90L128.50-17.90Q128.50-13.60 131.35-10.65L131.35-10.65L131.35-10.65Q134.20-7.70 138.30-7.60L138.30-7.60L138.30-7.60Q140.80-7.70 142.95-9.05L142.95-9.05L142.95-9.05Q145.10-10.40 146-11.60L146-11.60L146.80-12.90L146.80-12.90Q146.90-16.30 147.80-18.60L147.80-18.60L147.80-18.60Q149.20-22.50 151.10-22.50L151.10-22.50L151.40-22.50L151.40-22.50Q152.50-22.10 152.50-19.30L152.50-19.30L152.50-19.30Q152.50-18.10 150.20-14.60L150.20-14.60L149.40-13.30L149.40-13.30Q149.40-5.60 149.50-1.90L149.50-1.90L149.50-1.90Q155.30-7.40 158.10-10.90L158.10-10.90L158.10-10.90Q159.40-11.90 160.15-11.90L160.15-11.90L160.15-11.90Q160.90-11.90 160.90-11.15L160.90-11.15L160.90-11.15Q160.90-10.40 159.60-9.30L159.60-9.30L159.60-9.30Q156.60-6.90 149.60 0.80L149.60 0.80L149.90 16.10L149.90 16.10Q149.90 28.50 148.20 34.90L148.20 34.90L148.20 34.90Q146.50 41.30 141.80 41.30L141.80 41.30L141.80 41.30Q138 41.30 135.50 37.40L135.50 37.40L135.50 37.40Q133 33.50 133 28.90L133 28.90L133 28.90Q133 20.10 136.65 13.65L136.65 13.65L136.65 13.65Q140.30 7.20 147 0.60L147 0.60L147 0.60Q146.80-6.60 146.80-7.30L146.80-7.30L146.80-7.30Q146.80-8 146.25-8L146.25-8L146.25-8Q145.70-8 145-7L145-7L145-7Q141.50-3.30 139.90-1.80L139.90-1.80L139.90-1.80Q135.60 2.40 131.25 2.40L131.25 2.40L131.25 2.40Q126.90 2.40 124.35-0.50L124.35-0.50L124.35-0.50Q121.80-3.40 121.80-8.75L121.80-8.75L121.80-8.75Q121.80-14.10 123.85-18.55L123.85-18.55L123.85-18.55Q125.90-23 127.70-23L127.70-23L127.70-23Q128.90-23 128.90-21.90ZM156.40-8.60L156.40-8.60L156.40-8.60Q156.40-10.20 159.50-13.85L159.50-13.85L159.50-13.85Q162.60-17.50 164.55-17.50L164.55-17.50L164.55-17.50Q166.50-17.50 167.45-16L167.45-16L167.45-16Q168.40-14.50 168.60-12.70L168.60-12.70L168.60-12.70Q168.80-10.90 169.75-9.40L169.75-9.40L169.75-9.40Q170.70-7.90 172.55-7.90L172.55-7.90L172.55-7.90Q174.40-7.90 175.85-9.55L175.85-9.55L175.85-9.55Q177.30-11.20 178.20-13.25L178.20-13.25L178.20-13.25Q179.10-15.30 180.60-16.95L180.60-16.95L180.60-16.95Q182.10-18.60 183.55-18.60L183.55-18.60L183.55-18.60Q185-18.60 185.60-17.40L185.60-17.40L185.60-17.40Q191.80-4.10 198.20-4.10L198.20-4.10L198.20-4.10Q199.20-4.10 200-4.40L200-4.40L200-4.40Q200.80-4.70 201.20-4.70L201.20-4.70L201.20-4.70Q202.40-4.70 202.40-2.80L202.40-2.80L202.40-2.80Q202.40 0.60 198.85 3.30L198.85 3.30L198.85 3.30Q195.30 6 191.60 6L191.60 6L191.60 6Q187.90 6 185.35 3.60L185.35 3.60L185.35 3.60Q182.80 1.20 181.85-1.35L181.85-1.35L181.85-1.35Q180.90-3.90 180.45-6.30L180.45-6.30L180.45-6.30Q180-8.70 179.50-8.70L179.50-8.70L179.50-8.70Q178.70-8.70 176.35-5.55L176.35-5.55L176.35-5.55Q174-2.40 171.05 0.80L171.05 0.80L171.05 0.80Q168.10 4 165.80 4L165.80 4L165.80 4Q163.40 3.70 162 1.65L162 1.65L162 1.65Q160.60-0.40 160.20-2.60L160.20-2.60L160.20-2.60Q159.30-8.60 156.40-8.60ZM208-11.50L208-11.50Q209.70-12.10 211.45-15.35L211.45-15.35L211.45-15.35Q213.20-18.60 213.20-20.70L213.20-20.70L213.20-20.70Q213.20-22.80 211.60-22.90L211.60-22.90L211.60-22.90Q209.20-22.90 208.20-20.75L208.20-20.75L208.20-20.75Q207.20-18.60 207.20-16.05L207.20-16.05L207.20-16.05Q207.20-13.50 208-11.50L208-11.50ZM216.60-5L216.60-5L216.60-5Q219.40-5 221.25-6.25L221.25-6.25L221.25-6.25Q223.10-7.50 224.75-9.50L224.75-9.50L224.75-9.50Q226.40-11.50 227.35-11.50L227.35-11.50L227.35-11.50Q228.30-11.50 228.30-10.60L228.30-10.60L228.30-10.60Q228.30-10 227.90-9.20L227.90-9.20L227.90-9.20Q224.60-3.90 219.70 0.15L219.70 0.15L219.70 0.15Q214.80 4.20 209.30 4.20L209.30 4.20L209.30 4.20Q203.80 4.20 201.35 1.55L201.35 1.55L201.35 1.55Q198.90-1.10 198.90-5.50L198.90-5.50L198.90-5.50Q198.90-13.10 204.60-21.05L204.60-21.05L204.60-21.05Q210.30-29 216.40-29L216.40-29L216.40-29Q219.60-29 219.60-26.40L219.60-26.40L219.60-26.40Q219.60-22.90 217.40-19.15L217.40-19.15L217.40-19.15Q215.20-15.40 209.30-9L209.30-9L209.30-9Q212-5 216.60-5ZM290.10-66.60L290.10-66.60L290.60-68.60L290.60-68.60Q290.60-70.40 288.75-71.25L288.75-71.25L288.75-71.25Q286.90-72.10 285.10-72.10L285.10-72.10L285.10-72.10Q280.90-72.10 274.70-69.40L274.70-69.40L274.70-69.40Q268.50-66.70 263.80-62.95L263.80-62.95L263.80-62.95Q259.10-59.20 259.05-56.60L259.05-56.60L259.05-56.60Q259-54 261.55-51.80L261.55-51.80L261.55-51.80Q264.10-49.60 267.15-48.20L267.15-48.20L267.15-48.20Q270.20-46.80 272.75-44.65L272.75-44.65L272.75-44.65Q275.30-42.50 275.30-39.95L275.30-39.95L275.30-39.95Q275.30-37.40 273.75-35.10L273.75-35.10L273.75-35.10Q272.20-32.80 270-31.05L270-31.05L270-31.05Q267.80-29.30 265.70-27.50L265.70-27.50L265.70-27.50Q260.40-23.10 260.40-17.70L260.40-17.70L260.40-17.70Q260.40-14.20 263.35-11.65L263.35-11.65L263.35-11.65Q266.30-9.10 270.15-9.10L270.15-9.10L270.15-9.10Q274-9.10 277.70-10.35L277.70-10.35L277.70-10.35Q281.40-11.60 284.70-14.20L284.70-14.20L284.70-14.20Q289.10-17.80 293.60-22.60L293.60-22.60L293.60-22.60Q294.30-23.30 295-23.30L295-23.30L295-23.30Q295.70-23.30 296.20-22.60L296.20-22.60L296.20-22.60Q296.70-21.90 296.70-21.10L296.70-21.10L296.70-21.10Q296.70-19.10 293.15-15L293.15-15L293.15-15Q289.60-10.90 284.35-6.70L284.35-6.70L284.35-6.70Q279.10-2.50 272.10 0.70L272.10 0.70L272.10 0.70Q265.10 3.90 259.60 3.90L259.60 3.90L259.60 3.90Q254.10 3.90 250.70 1.10L250.70 1.10L250.70 1.10Q247.30-1.70 247.30-6.35L247.30-6.35L247.30-6.35Q247.30-11 249.90-15.40L249.90-15.40L249.90-15.40Q252.50-19.80 255.55-22.60L255.55-22.60L255.55-22.60Q258.60-25.40 261.20-28.10L261.20-28.10L261.20-28.10Q263.80-30.80 263.80-32.55L263.80-32.55L263.80-32.55Q263.80-34.30 261.30-35.95L261.30-35.95L261.30-35.95Q258.80-37.60 255.80-38.65L255.80-38.65L255.80-38.65Q252.80-39.70 250.30-42.10L250.30-42.10L250.30-42.10Q247.80-44.50 247.80-47.90L247.80-47.90L247.80-47.90Q247.80-53.80 254.10-60.15L254.10-60.15L254.10-60.15Q260.40-66.50 268.90-70.95L268.90-70.95L268.90-70.95Q277.40-75.40 285.40-78.30L285.40-78.30L285.40-78.30Q293.40-81.20 296.95-81.20L296.95-81.20L296.95-81.20Q300.50-81.20 302.35-79.60L302.35-79.60L302.35-79.60Q304.20-78 304.20-75.60L304.20-75.60L304.20-75.60Q304.20-72.10 299-68.95L299-68.95L299-68.95Q293.80-65.80 291.95-65.85L291.95-65.85L291.95-65.85Q290.10-65.90 290.10-66.60ZM295.50-8.60L295.50-8.60L295.50-8.60Q295.50-10.20 298.60-13.85L298.60-13.85L298.60-13.85Q301.70-17.50 303.65-17.50L303.65-17.50L303.65-17.50Q305.60-17.50 306.55-16L306.55-16L306.55-16Q307.50-14.50 307.70-12.70L307.70-12.70L307.70-12.70Q307.90-10.90 308.85-9.40L308.85-9.40L308.85-9.40Q309.80-7.90 311.65-7.90L311.65-7.90L311.65-7.90Q313.50-7.90 314.95-9.55L314.95-9.55L314.95-9.55Q316.40-11.20 317.30-13.25L317.30-13.25L317.30-13.25Q318.20-15.30 319.70-16.95L319.70-16.95L319.70-16.95Q321.20-18.60 322.65-18.60L322.65-18.60L322.65-18.60Q324.10-18.60 324.70-17.40L324.70-17.40L324.70-17.40Q330.90-4.10 337.30-4.10L337.30-4.10L337.30-4.10Q338.30-4.10 339.10-4.40L339.10-4.40L339.10-4.40Q339.90-4.70 340.30-4.70L340.30-4.70L340.30-4.70Q341.50-4.70 341.50-2.80L341.50-2.80L341.50-2.80Q341.50 0.60 337.95 3.30L337.95 3.30L337.95 3.30Q334.40 6 330.70 6L330.70 6L330.70 6Q327 6 324.45 3.60L324.45 3.60L324.45 3.60Q321.90 1.20 320.95-1.35L320.95-1.35L320.95-1.35Q320-3.90 319.55-6.30L319.55-6.30L319.55-6.30Q319.10-8.70 318.60-8.70L318.60-8.70L318.60-8.70Q317.80-8.70 315.45-5.55L315.45-5.55L315.45-5.55Q313.10-2.40 310.15 0.80L310.15 0.80L310.15 0.80Q307.20 4 304.90 4L304.90 4L304.90 4Q302.50 3.70 301.10 1.65L301.10 1.65L301.10 1.65Q299.70-0.40 299.30-2.60L299.30-2.60L299.30-2.60Q298.40-8.60 295.50-8.60ZM321.80-30.70L321.80-30.70L321.80-30.70Q321.80-32.70 325-33.70L325-33.70L325-33.70Q329.90-35.80 341-40.20L341-40.20L341-40.20Q343-55.40 347-55.40L347-55.40L347-55.40Q349.60-55.40 349.60-47.10L349.60-47.10L349.60-47.10Q349.60-44.70 349.50-43.50L349.50-43.50L349.50-43.50Q364.70-49.30 369.90-50.60L369.90-50.60L369.90-50.60Q375.10-51.90 378.20-51.90L378.20-51.90L378.20-51.90Q382.90-51.90 382.90-48.50L382.90-48.50L382.90-48.50Q382.90-47.40 381.50-46.70L381.50-46.70L381.50-46.70Q375.30-43.60 373.80-43.60L373.80-43.60L373.80-43.60Q373.50-43.60 372.80-44.05L372.80-44.05L372.80-44.05Q372.10-44.50 371.20-44.50L371.20-44.50L371.20-44.50Q370.30-44.50 367.50-43.80L367.50-43.80L367.50-43.80Q361.80-42.30 348.80-38L348.80-38L348.80-38Q347.60-30.20 345.30-26.80L345.30-26.80L345.30-26.80Q345.70-15.40 348.30-11.40L348.30-11.40L348.30-11.40Q349.50-9.50 351.75-8.10L351.75-8.10L351.75-8.10Q354-6.70 357.30-6.70L357.30-6.70L357.30-6.70Q360.60-6.70 363.80-9.70L363.80-9.70L363.80-9.70Q364.40-10.30 364.80-10.30L364.80-10.30L364.80-10.30Q365.60-10.30 365.60-9L365.60-9L365.60-9Q365.60-4.80 360-0.55L360-0.55L360-0.55Q354.40 3.70 349.30 3.70L349.30 3.70L349.30 3.70Q339.20 3.70 339.20-12.70L339.20-12.70L339.20-12.70Q339.20-23 340.40-34.90L340.40-34.90L340.40-34.90Q332.10-31.70 328.15-29.70L328.15-29.70L328.15-29.70Q324.20-27.70 323.50-27.70L323.50-27.70L323.50-27.70Q322.80-27.70 322.30-28.70L322.30-28.70L322.30-28.70Q321.80-29.70 321.80-30.70ZM370.90-11.50L370.90-11.50Q372.60-12.10 374.35-15.35L374.35-15.35L374.35-15.35Q376.10-18.60 376.10-20.70L376.10-20.70L376.10-20.70Q376.10-22.80 374.50-22.90L374.50-22.90L374.50-22.90Q372.10-22.90 371.10-20.75L371.10-20.75L371.10-20.75Q370.10-18.60 370.10-16.05L370.10-16.05L370.10-16.05Q370.10-13.50 370.90-11.50L370.90-11.50ZM379.50-5L379.50-5L379.50-5Q382.30-5 384.15-6.25L384.15-6.25L384.15-6.25Q386-7.50 387.65-9.50L387.65-9.50L387.65-9.50Q389.30-11.50 390.25-11.50L390.25-11.50L390.25-11.50Q391.20-11.50 391.20-10.60L391.20-10.60L391.20-10.60Q391.20-10 390.80-9.20L390.80-9.20L390.80-9.20Q387.50-3.90 382.60 0.15L382.60 0.15L382.60 0.15Q377.70 4.20 372.20 4.20L372.20 4.20L372.20 4.20Q366.70 4.20 364.25 1.55L364.25 1.55L364.25 1.55Q361.80-1.10 361.80-5.50L361.80-5.50L361.80-5.50Q361.80-13.10 367.50-21.05L367.50-21.05L367.50-21.05Q373.20-29 379.30-29L379.30-29L379.30-29Q382.50-29 382.50-26.40L382.50-26.40L382.50-26.40Q382.50-22.90 380.30-19.15L380.30-19.15L380.30-19.15Q378.10-15.40 372.20-9L372.20-9L372.20-9Q374.90-5 379.50-5ZM391.60-13.10L391.60-13.10L388.90-12.90L388.90-12.90Q387.10-12.90 387.10-13.80L387.10-13.80L387.10-13.80Q387.10-15.20 390.65-19.15L390.65-19.15L390.65-19.15Q394.20-23.10 397-23.10L397-23.10L397-23.10Q398.20-23.10 399.15-22.40L399.15-22.40L399.15-22.40Q400.10-21.70 400.20-20.70L400.20-20.70L400.70-16.20L400.70-16.20Q401-15.80 401.30-15.80L401.30-15.80L401.30-15.80Q401.60-15.80 402.90-17.40L402.90-17.40L402.90-17.40Q407.10-22.30 410.40-22.30L410.40-22.30L410.40-22.30Q411.70-22.30 412.50-21.90L412.50-21.90L412.50-21.90Q413.30-21.50 414.35-20.35L414.35-20.35L414.35-20.35Q415.40-19.20 415.50-19.10L415.50-19.10L415.50-19.10Q416.20-19.40 416.90-19.40L416.90-19.40L416.90-19.40Q418-19.40 418-18.05L418-18.05L418-18.05Q418-16.70 414.10-13.05L414.10-13.05L414.10-13.05Q410.20-9.40 408.30-9.40L408.30-9.40L408.30-9.40Q406.40-9.40 405.10-11.10L405.10-11.10L405.10-11.10Q403.80-12.80 403.20-12.80L403.20-12.80L403.20-12.80Q400.90-12.80 400.90-10.40L400.90-10.40L400.90-10.40Q400.90-8.60 402.55-4.30L402.55-4.30L402.55-4.30Q404.20 0 404.20 0.80L404.20 0.80L404.20 0.80Q404.20 2.80 402.15 3.95L402.15 3.95L402.15 3.95Q400.10 5.10 397.65 5.10L397.65 5.10L397.65 5.10Q395.20 5.10 393.70 4.30L393.70 4.30L393.70 4.30Q392.20 3.50 392.20 2.10L392.20 2.10L395-10L395-10Q395-13.10 391.60-13.10ZM429.60-13.50L429.60-13.50L429.60-13.50Q426.80-13.50 425.50-3.20L425.50-3.20L425.50-3.20Q428.10-0.10 431.60-0.10L431.60-0.10L431.60-0.10Q433.20-0.10 435.20-1.10L435.20-1.10L435.20-1.10Q436.00-3.50 436.00-6.10L436.00-6.10L436.00-6.10Q436.00-8.70 433.90-11.10L433.90-11.10L433.90-11.10Q431.80-13.50 429.60-13.50ZM421.60-7.70L421.60-7.70L422.30-20.30L422.30-20.30Q422.30-20.90 421.95-20.90L421.95-20.90L421.95-20.90Q421.60-20.90 420.95-20L420.95-20L420.95-20Q420.30-19.10 419.20-19.10L419.20-19.10L419.20-19.10Q418.10-19.10 418.10-19.80L418.10-19.80L418.10-19.80Q418.10-20.50 419.00-21.55L419.00-21.55L419.00-21.55Q419.90-22.60 421.05-25.35L421.05-25.35L421.05-25.35Q422.20-28.10 423.10-29.95L423.10-29.95L423.10-29.95Q424.00-31.80 424.80-31.80L424.80-31.80L424.80-31.80Q425.90-31.80 426.50-30.85L426.50-30.85L426.50-30.85Q427.10-29.90 427.10-29.10L427.10-29.10L427.10-29.10Q427.10-28.30 426.20-23.70L426.20-23.70L426.20-23.70Q425.30-19.10 425.30-16.95L425.30-16.95L425.30-16.95Q425.30-14.80 425.80-14.80L425.80-14.80L425.80-14.80Q426.00-14.80 427.65-16.95L427.65-16.95L427.65-16.95Q429.30-19.10 431.65-21.25L431.65-21.25L431.65-21.25Q434.00-23.40 436.00-23.40L436.00-23.40L436.00-23.40Q443.40-23.40 443.40-14.90L443.40-14.90L443.40-14.90Q443.40-9 440.10-4.10L440.10-4.10L440.10-4.10Q445.10-7.60 449.20-11.40L449.20-11.40L450.60-12.70L450.60-12.70Q451.80-12.70 451.80-12L451.80-12L451.80-12Q451.80-10.30 447.55-6.35L447.55-6.35L447.55-6.35Q443.30-2.40 436.65 1.50L436.65 1.50L436.65 1.50Q430.00 5.40 424.40 6.60L424.40 6.60L424.40 6.60Q424.20 11.60 424.20 14.70L424.20 14.70L424.20 14.70Q424.20 17.80 424.55 20.25L424.55 20.25L424.55 20.25Q424.90 22.70 424.90 23.85L424.90 23.85L424.90 23.85Q424.90 25 424.00 25.75L424.00 25.75L424.00 25.75Q423.10 26.50 422.10 26.50L422.10 26.50L422.10 26.50Q420.80 26.50 420.70 24.80L420.70 24.80L420.70 24.80Q420.60 23.10 420.60 16.50L420.60 16.50L420.60 16.50Q420.60 9.90 420.70 7.10L420.70 7.10L420.70 7.10Q418.00 7.10 416.40 4.65L416.40 4.65L416.40 4.65Q414.80 2.20 414.80 0L414.80 0L414.80 0Q414.80-2.20 416.75-4.90L416.75-4.90L416.75-4.90Q418.70-7.60 421.60-7.70ZM448.10-13.10L448.10-13.10L445.40-12.90L445.40-12.90Q443.60-12.90 443.60-13.80L443.60-13.80L443.60-13.80Q443.60-15.20 447.15-19.15L447.15-19.15L447.15-19.15Q450.70-23.10 453.50-23.10L453.50-23.10L453.50-23.10Q454.70-23.10 455.65-22.40L455.65-22.40L455.65-22.40Q456.60-21.70 456.70-20.70L456.70-20.70L457.20-16.20L457.20-16.20Q457.50-15.80 457.80-15.80L457.80-15.80L457.80-15.80Q458.10-15.80 459.40-17.40L459.40-17.40L459.40-17.40Q463.60-22.30 466.90-22.30L466.90-22.30L466.90-22.30Q468.20-22.30 469.00-21.90L469.00-21.90L469.00-21.90Q469.80-21.50 470.85-20.35L470.85-20.35L470.85-20.35Q471.90-19.20 472.00-19.10L472.00-19.10L472.00-19.10Q472.70-19.40 473.40-19.40L473.40-19.40L473.40-19.40Q474.50-19.40 474.50-18.05L474.50-18.05L474.50-18.05Q474.50-16.70 470.60-13.05L470.60-13.05L470.60-13.05Q466.70-9.40 464.80-9.40L464.80-9.40L464.80-9.40Q462.90-9.40 461.60-11.10L461.60-11.10L461.60-11.10Q460.30-12.80 459.70-12.80L459.70-12.80L459.70-12.80Q457.40-12.80 457.40-10.40L457.40-10.40L457.40-10.40Q457.40-8.60 459.05-4.30L459.05-4.30L459.05-4.30Q460.70 0 460.70 0.80L460.70 0.80L460.70 0.80Q460.70 2.80 458.65 3.95L458.65 3.95L458.65 3.95Q456.60 5.10 454.15 5.10L454.15 5.10L454.15 5.10Q451.70 5.10 450.20 4.30L450.20 4.30L450.20 4.30Q448.70 3.50 448.70 2.10L448.70 2.10L451.50-10L451.50-10Q451.50-13.10 448.10-13.10ZM476.45-31.10L476.45-31.10L476.45-31.10Q474.90-32.80 474.90-35.30L474.90-35.30L474.90-35.30Q474.90-37.80 476.45-39.50L476.45-39.50L476.45-39.50Q478.00-41.20 480.30-41.20L480.30-41.20L480.30-41.20Q482.60-41.20 484.15-39.50L484.15-39.50L484.15-39.50Q485.70-37.80 485.70-35.30L485.70-35.30L485.70-35.30Q485.70-32.80 484.15-31.10L484.15-31.10L484.15-31.10Q482.60-29.40 480.30-29.40L480.30-29.40L480.30-29.40Q478.00-29.40 476.45-31.10ZM497.20-9.30L497.20-9.30L497.20-9.30Q498.20-10.10 499.00-10.10L499.00-10.10L499.00-10.10Q500.40-10.10 500.40-8.30L500.40-8.30L500.40-8.30Q500.40-5.80 494.20-0.85L494.20-0.85L494.20-0.85Q488.00 4.10 483.50 4.10L483.50 4.10L483.50 4.10Q479.00 4.10 476.50 0.90L476.50 0.90L476.50 0.90Q474.00-2.30 474.00-7.35L474.00-7.35L474.00-7.35Q474.00-12.40 475.70-17.10L475.70-17.10L475.70-17.10Q477.40-21.80 479.10-21.80L479.10-21.80L479.10-21.80Q479.90-21.70 479.90-19.35L479.90-19.35L479.90-19.35Q479.90-17 480.60-14.20L480.60-14.20L480.60-14.20Q481.30-11.40 483.65-8.85L483.65-8.85L483.65-8.85Q486.00-6.30 489.75-6.30L489.75-6.30L489.75-6.30Q493.50-6.30 497.20-9.30ZM524.30-6.40L524.30-6.40L524.30-6.40Q525.10-6.40 526.90-7.60L526.90-7.60L526.90-7.60Q528.70-8.80 529.80-10L529.80-10L530.90-11.10L530.90-11.10Q531.60-11.80 532.30-11.80L532.30-11.80L532.30-11.80Q533.50-11.80 533.50-10.40L533.50-10.40L533.50-10.40Q533.50-9.90 533.40-9.60L533.40-9.60L533.40-9.60Q530.80-3.30 523.80 0.55L523.80 0.55L523.80 0.55Q516.80 4.40 511.30 4.40L511.30 4.40L511.30 4.40Q500.60 4.40 500.60-4L500.60-4L500.60-4Q500.60-5.10 503.20-7.50L503.20-7.50L503.20-7.50Q505.80-9.90 507.00-10.50L507.00-10.50L507.00-10.50Q507.80-11.10 508.25-11.10L508.25-11.10L508.25-11.10Q508.70-11.10 509.00-10.70L509.00-10.70L509.00-10.70Q509.30-10.30 509.70-9.70L509.70-9.70L509.70-9.70Q510.10-9.10 510.40-8.70L510.40-8.70L510.40-8.70Q510.70-8.30 511.20-7.60L511.20-7.60L511.20-7.60Q511.70-6.90 512.25-6.45L512.25-6.45L512.25-6.45Q512.80-6 513.50-5.60L513.50-5.60L513.50-5.60Q514.80-4.60 516.25-4.60L516.25-4.60L516.25-4.60Q517.70-4.60 517.70-6.30L517.70-6.30L517.70-6.30Q517.70-10.50 514.60-13.55L514.60-13.55L514.60-13.55Q511.50-16.60 509.40-16.60L509.40-16.60L509.40-16.60Q508.90-16.60 508.40-16L508.40-16L504.70-12.30L504.70-12.30Q503.80-11.40 503.40-11.40L503.40-11.40L503.40-11.40Q501.90-11.40 501.90-12.70L501.90-12.70L501.90-12.70Q512.60-25.80 514.60-25.80L514.60-25.80L514.60-25.80Q517.40-25.80 521.00-22L521.00-22L521.00-22Q524.60-18.20 524.60-14.40L524.60-14.40L524.60-14.40Q524.60-10.80 524.05-8.90L524.05-8.90L524.05-8.90Q523.50-7 523.50-6.70L523.50-6.70L523.50-6.70Q523.50-6.40 524.30-6.40ZM537.20-11.50L537.20-11.50Q538.90-12.10 540.65-15.35L540.65-15.35L540.65-15.35Q542.40-18.60 542.40-20.70L542.40-20.70L542.40-20.70Q542.40-22.80 540.80-22.90L540.80-22.90L540.80-22.90Q538.40-22.90 537.40-20.75L537.40-20.75L537.40-20.75Q536.40-18.60 536.40-16.05L536.40-16.05L536.40-16.05Q536.40-13.50 537.20-11.50L537.20-11.50ZM545.80-5L545.80-5L545.80-5Q548.60-5 550.45-6.25L550.45-6.25L550.45-6.25Q552.30-7.50 553.95-9.50L553.95-9.50L553.95-9.50Q555.60-11.50 556.55-11.50L556.55-11.50L556.55-11.50Q557.50-11.50 557.50-10.60L557.50-10.60L557.50-10.60Q557.50-10 557.10-9.20L557.10-9.20L557.10-9.20Q553.80-3.90 548.90 0.15L548.90 0.15L548.90 0.15Q544.00 4.20 538.50 4.20L538.50 4.20L538.50 4.20Q533.00 4.20 530.55 1.55L530.55 1.55L530.55 1.55Q528.10-1.10 528.10-5.50L528.10-5.50L528.10-5.50Q528.10-13.10 533.80-21.05L533.80-21.05L533.80-21.05Q539.50-29 545.60-29L545.60-29L545.60-29Q548.80-29 548.80-26.40L548.80-26.40L548.80-26.40Q548.80-22.90 546.60-19.15L546.60-19.15L546.60-19.15Q544.40-15.40 538.50-9L538.50-9L538.50-9Q541.20-5 545.80-5ZM579.10-6.40L579.10-6.40L579.10-6.40Q579.90-6.40 581.70-7.60L581.70-7.60L581.70-7.60Q583.50-8.80 584.60-10L584.60-10L585.70-11.10L585.70-11.10Q586.40-11.80 587.10-11.80L587.10-11.80L587.10-11.80Q588.30-11.80 588.30-10.40L588.30-10.40L588.30-10.40Q588.30-9.90 588.20-9.60L588.20-9.60L588.20-9.60Q585.60-3.30 578.60 0.55L578.60 0.55L578.60 0.55Q571.60 4.40 566.10 4.40L566.10 4.40L566.10 4.40Q555.40 4.40 555.40-4L555.40-4L555.40-4Q555.40-5.10 558.00-7.50L558.00-7.50L558.00-7.50Q560.60-9.90 561.80-10.50L561.80-10.50L561.80-10.50Q562.60-11.10 563.05-11.10L563.05-11.10L563.05-11.10Q563.50-11.10 563.80-10.70L563.80-10.70L563.80-10.70Q564.10-10.30 564.50-9.70L564.50-9.70L564.50-9.70Q564.90-9.10 565.20-8.70L565.20-8.70L565.20-8.70Q565.50-8.30 566.00-7.60L566.00-7.60L566.00-7.60Q566.50-6.90 567.05-6.45L567.05-6.45L567.05-6.45Q567.60-6 568.30-5.60L568.30-5.60L568.30-5.60Q569.60-4.60 571.05-4.60L571.05-4.60L571.05-4.60Q572.50-4.60 572.50-6.30L572.50-6.30L572.50-6.30Q572.50-10.50 569.40-13.55L569.40-13.55L569.40-13.55Q566.30-16.60 564.20-16.60L564.20-16.60L564.20-16.60Q563.70-16.60 563.20-16L563.20-16L559.50-12.30L559.50-12.30Q558.60-11.40 558.20-11.40L558.20-11.40L558.20-11.40Q556.70-11.40 556.70-12.70L556.70-12.70L556.70-12.70Q567.40-25.80 569.40-25.80L569.40-25.80L569.40-25.80Q572.20-25.80 575.80-22L575.80-22L575.80-22Q579.40-18.20 579.40-14.40L579.40-14.40L579.40-14.40Q579.40-10.80 578.85-8.90L578.85-8.90L578.85-8.90Q578.30-7 578.30-6.70L578.30-6.70L578.30-6.70Q578.30-6.40 579.10-6.40Z" fill="url(#editing-gradient-gradient)"></path></g></g><style>text {
  font-size: 64px;
  font-family: Arial Black;
  dominant-baseline: central;
  text-anchor: middle;
}</style></svg>